{
	"asset":{
		"generator":"Khronos glTF Blender I/O v3.6.27",
		"version":"2.0"
	},
	"scene":0,
	"scenes":[
		{
			"name":"Scene",
			"nodes":[
				0
			]
		}
	],
	"nodes":[
		{
			"mesh":0,
			"name":"Bow",
			"translation":[
				-7.597090734634548e-05,
				0.004406618885695934,
				-0.13420316576957703
			]
		}
	],
	"materials":[
		{
			"doubleSided":true,
			"name":"Material.001",
			"pbrMetallicRoughness":{
				"baseColorTexture":{
					"index":0
				},
				"metallicFactor":0
			}
		},
		{
			"doubleSided":true,
			"name":"Material.002",
			"pbrMetallicRoughness":{
				"baseColorTexture":{
					"index":1
				},
				"metallicFactor":0
			}
		},
		{
			"doubleSided":true,
			"name":"Material.003",
			"pbrMetallicRoughness":{
				"baseColorFactor":[
					0.12371058017015457,
					0.12371058017015457,
					0.12371058017015457,
					1
				],
				"metallicFactor":0,
				"roughnessFactor":0.5
			}
		}
	],
	"meshes":[
		{
			"name":"BezierCurve.002",
			"primitives":[
				{
					"attributes":{
						"POSITION":0,
						"NORMAL":1,
						"TEXCOORD_0":2
					},
					"indices":3,
					"material":0
				},
				{
					"attributes":{
						"POSITION":4,
						"NORMAL":5,
						"TEXCOORD_0":6
					},
					"indices":7,
					"material":1
				},
				{
					"attributes":{
						"POSITION":8,
						"NORMAL":9,
						"TEXCOORD_0":10
					},
					"indices":11,
					"material":2
				}
			]
		}
	],
	"textures":[
		{
			"sampler":0,
			"source":0
		},
		{
			"sampler":0,
			"source":1
		}
	],
	"images":[
		{
			"bufferView":4,
			"mimeType":"image/png",
			"name":"wood 1"
		},
		{
			"bufferView":9,
			"mimeType":"image/jpeg",
			"name":"steel dark"
		}
	],
	"accessors":[
		{
			"bufferView":0,
			"componentType":5126,
			"count":2266,
			"max":[
				2.3417022228240967,
				0.08209656178951263,
				0.7894542217254639
			],
			"min":[
				-2.34155011177063,
				-0.08289513736963272,
				-0.30289363861083984
			],
			"type":"VEC3"
		},
		{
			"bufferView":1,
			"componentType":5126,
			"count":2266,
			"type":"VEC3"
		},
		{
			"bufferView":2,
			"componentType":5126,
			"count":2266,
			"type":"VEC2"
		},
		{
			"bufferView":3,
			"componentType":5123,
			"count":3408,
			"type":"SCALAR"
		},
		{
			"bufferView":5,
			"componentType":5126,
			"count":280,
			"max":[
				0.2546268403530121,
				0.027382344007492065,
				-0.18415138125419617
			],
			"min":[
				-0.2544749081134796,
				-0.035952378064394,
				-0.30289363861083984
			],
			"type":"VEC3"
		},
		{
			"bufferView":6,
			"componentType":5126,
			"count":280,
			"type":"VEC3"
		},
		{
			"bufferView":7,
			"componentType":5126,
			"count":280,
			"type":"VEC2"
		},
		{
			"bufferView":8,
			"componentType":5123,
			"count":504,
			"type":"SCALAR"
		},
		{
			"bufferView":10,
			"componentType":5126,
			"count":192,
			"max":[
				2.311925172805786,
				0.003341244999319315,
				0.758277416229248
			],
			"min":[
				-2.316075325012207,
				-0.016658756881952286,
				0.7382774353027344
			],
			"type":"VEC3"
		},
		{
			"bufferView":11,
			"componentType":5126,
			"count":192,
			"type":"VEC3"
		},
		{
			"bufferView":12,
			"componentType":5126,
			"count":192,
			"type":"VEC2"
		},
		{
			"bufferView":13,
			"componentType":5123,
			"count":372,
			"type":"SCALAR"
		}
	],
	"bufferViews":[
		{
			"buffer":0,
			"byteLength":27192,
			"byteOffset":0,
			"target":34962
		},
		{
			"buffer":0,
			"byteLength":27192,
			"byteOffset":27192,
			"target":34962
		},
		{
			"buffer":0,
			"byteLength":18128,
			"byteOffset":54384,
			"target":34962
		},
		{
			"buffer":0,
			"byteLength":6816,
			"byteOffset":72512,
			"target":34963
		},
		{
			"buffer":0,
			"byteLength":143827,
			"byteOffset":79328
		},
		{
			"buffer":0,
			"byteLength":3360,
			"byteOffset":223156,
			"target":34962
		},
		{
			"buffer":0,
			"byteLength":3360,
			"byteOffset":226516,
			"target":34962
		},
		{
			"buffer":0,
			"byteLength":2240,
			"byteOffset":229876,
			"target":34962
		},
		{
			"buffer":0,
			"byteLength":1008,
			"byteOffset":232116,
			"target":34963
		},
		{
			"buffer":0,
			"byteLength":133379,
			"byteOffset":233124
		},
		{
			"buffer":0,
			"byteLength":2304,
			"byteOffset":366504,
			"target":34962
		},
		{
			"buffer":0,
			"byteLength":2304,
			"byteOffset":368808,
			"target":34962
		},
		{
			"buffer":0,
			"byteLength":1536,
			"byteOffset":371112,
			"target":34962
		},
		{
			"buffer":0,
			"byteLength":744,
			"byteOffset":372648,
			"target":34963
		}
	],
	"samplers":[
		{
			"magFilter":9729,
			"minFilter":9987
		}
	],
	"buffers":[
		{
			"byteLength":373392,
			"uri":"data:application/octet-stream;base64,"
		}
	]
}
