{
	"asset":{
		"generator":"Khronos glTF Blender I/O v3.6.27",
		"version":"2.0"
	},
	"scene":0,
	"scenes":[
		{
			"name":"Scene",
			"nodes":[
				0
			]
		}
	],
	"nodes":[
		{
			"mesh":0,
			"name":"Chair",
			"rotation":[
				0.6879335641860962,
				-0.00022318438277579844,
				0.00022318429546430707,
				0.7257735729217529
			],
			"translation":[
				2.367074966430664,
				8.305877685546875,
				-3.7576866149902344
			]
		}
	],
	"materials":[
		{
			"doubleSided":true,
			"name":"Material.001",
			"pbrMetallicRoughness":{
				"baseColorTexture":{
					"index":0
				},
				"metallicFactor":0,
				"roughnessFactor":0.5
			}
		},
		{
			"doubleSided":true,
			"name":"Material.002",
			"pbrMetallicRoughness":{
				"baseColorTexture":{
					"index":1
				},
				"metallicFactor":0,
				"roughnessFactor":0.5
			}
		}
	],
	"meshes":[
		{
			"name":"Plane",
			"primitives":[
				{
					"attributes":{
						"POSITION":0,
						"NORMAL":1,
						"TEXCOORD_0":2
					},
					"indices":3,
					"material":0
				},
				{
					"attributes":{
						"POSITION":4,
						"NORMAL":5,
						"TEXCOORD_0":6
					},
					"indices":7,
					"material":1
				}
			]
		}
	],
	"textures":[
		{
			"sampler":0,
			"source":0
		},
		{
			"sampler":0,
			"source":1
		}
	],
	"images":[
		{
			"bufferView":4,
			"mimeType":"image/png",
			"name":"cushion 1"
		},
		{
			"bufferView":9,
			"mimeType":"image/png",
			"name":"wood 1"
		}
	],
	"accessors":[
		{
			"bufferView":0,
			"componentType":5126,
			"count":10,
			"max":[
				2.0828323364257812,
				-1.2848320007324219,
				-2.1876907348632812
			],
			"min":[
				-2.174168825149536,
				-1.2848320007324219,
				-8.109222412109375
			],
			"type":"VEC3"
		},
		{
			"bufferView":1,
			"componentType":5126,
			"count":10,
			"type":"VEC3"
		},
		{
			"bufferView":2,
			"componentType":5126,
			"count":10,
			"type":"VEC2"
		},
		{
			"bufferView":3,
			"componentType":5123,
			"count":24,
			"type":"SCALAR"
		},
		{
			"bufferView":5,
			"componentType":5126,
			"count":6388,
			"max":[
				3.353006362915039,
				4.733094215393066,
				8.38568115234375
			],
			"min":[
				-3.3683860301971436,
				-2.4099063873291016,
				-9.29876708984375
			],
			"type":"VEC3"
		},
		{
			"bufferView":6,
			"componentType":5126,
			"count":6388,
			"type":"VEC3"
		},
		{
			"bufferView":7,
			"componentType":5126,
			"count":6388,
			"type":"VEC2"
		},
		{
			"bufferView":8,
			"componentType":5123,
			"count":9660,
			"type":"SCALAR"
		}
	],
	"bufferViews":[
		{
			"buffer":0,
			"byteLength":120,
			"byteOffset":0,
			"target":34962
		},
		{
			"buffer":0,
			"byteLength":120,
			"byteOffset":120,
			"target":34962
		},
		{
			"buffer":0,
			"byteLength":80,
			"byteOffset":240,
			"target":34962
		},
		{
			"buffer":0,
			"byteLength":48,
			"byteOffset":320,
			"target":34963
		},
		{
			"buffer":0,
			"byteLength":313098,
			"byteOffset":368
		},
		{
			"buffer":0,
			"byteLength":76656,
			"byteOffset":313468,
			"target":34962
		},
		{
			"buffer":0,
			"byteLength":76656,
			"byteOffset":390124,
			"target":34962
		},
		{
			"buffer":0,
			"byteLength":51104,
			"byteOffset":466780,
			"target":34962
		},
		{
			"buffer":0,
			"byteLength":19320,
			"byteOffset":517884,
			"target":34963
		},
		{
			"buffer":0,
			"byteLength":143827,
			"byteOffset":537204
		}
	],
	"samplers":[
		{
			"magFilter":9729,
			"minFilter":9987
		}
	],
	"buffers":[
		{
			"byteLength":681032,
			"uri":"data:application/octet-stream;base64,"
		}
	]
}
