{
	"asset":{
		"generator":"Khronos glTF Blender I/O v3.6.27",
		"version":"2.0"
	},
	"scene":0,
	"scenes":[
		{
			"name":"Scene",
			"nodes":[
				0
			]
		}
	],
	"nodes":[
		{
			"mesh":0,
			"name":"Cube",
			"translation":[
				-1.6832772493362427,
				5.545598983764648,
				0
			]
		}
	],
	"materials":[
		{
			"doubleSided":true,
			"name":"Material",
			"pbrMetallicRoughness":{
				"baseColorTexture":{
					"index":0
				},
				"metallicFactor":0,
				"roughnessFactor":0.5
			}
		},
		{
			"doubleSided":true,
			"name":"Material.001",
			"pbrMetallicRoughness":{
				"baseColorTexture":{
					"index":1
				},
				"metallicFactor":0,
				"roughnessFactor":0.5
			}
		}
	],
	"meshes":[
		{
			"name":"Cube",
			"primitives":[
				{
					"attributes":{
						"POSITION":0,
						"NORMAL":1,
						"TEXCOORD_0":2
					},
					"indices":3,
					"material":0
				},
				{
					"attributes":{
						"POSITION":4,
						"NORMAL":5,
						"TEXCOORD_0":6
					},
					"indices":7,
					"material":1
				}
			]
		}
	],
	"textures":[
		{
			"sampler":0,
			"source":0
		},
		{
			"sampler":0,
			"source":1
		}
	],
	"images":[
		{
			"bufferView":4,
			"mimeType":"image/jpeg",
			"name":"122_old wood planks texture-seamless"
		},
		{
			"bufferView":9,
			"mimeType":"image/png",
			"name":"wood 2"
		}
	],
	"accessors":[
		{
			"bufferView":0,
			"componentType":5126,
			"count":32,
			"max":[
				2.6854491233825684,
				4.825429916381836,
				8.362381935119629
			],
			"min":[
				-2.6676554679870605,
				4.397111892700195,
				-8.362380027770996
			],
			"type":"VEC3"
		},
		{
			"bufferView":1,
			"componentType":5126,
			"count":32,
			"type":"VEC3"
		},
		{
			"bufferView":2,
			"componentType":5126,
			"count":32,
			"type":"VEC2"
		},
		{
			"bufferView":3,
			"componentType":5123,
			"count":48,
			"type":"SCALAR"
		},
		{
			"bufferView":5,
			"componentType":5126,
			"count":456,
			"max":[
				2.561978816986084,
				4.462231636047363,
				8.057429313659668
			],
			"min":[
				-2.561445713043213,
				-3.768040180206299,
				-8.057427406311035
			],
			"type":"VEC3"
		},
		{
			"bufferView":6,
			"componentType":5126,
			"count":456,
			"type":"VEC3"
		},
		{
			"bufferView":7,
			"componentType":5126,
			"count":456,
			"type":"VEC2"
		},
		{
			"bufferView":8,
			"componentType":5123,
			"count":720,
			"type":"SCALAR"
		}
	],
	"bufferViews":[
		{
			"buffer":0,
			"byteLength":384,
			"byteOffset":0,
			"target":34962
		},
		{
			"buffer":0,
			"byteLength":384,
			"byteOffset":384,
			"target":34962
		},
		{
			"buffer":0,
			"byteLength":256,
			"byteOffset":768,
			"target":34962
		},
		{
			"buffer":0,
			"byteLength":96,
			"byteOffset":1024,
			"target":34963
		},
		{
			"buffer":0,
			"byteLength":1118360,
			"byteOffset":1120
		},
		{
			"buffer":0,
			"byteLength":5472,
			"byteOffset":1119480,
			"target":34962
		},
		{
			"buffer":0,
			"byteLength":5472,
			"byteOffset":1124952,
			"target":34962
		},
		{
			"buffer":0,
			"byteLength":3648,
			"byteOffset":1130424,
			"target":34962
		},
		{
			"buffer":0,
			"byteLength":1440,
			"byteOffset":1134072,
			"target":34963
		},
		{
			"buffer":0,
			"byteLength":1229550,
			"byteOffset":1135512
		}
	],
	"samplers":[
		{
			"magFilter":9729,
			"minFilter":9987
		}
	],
	"buffers":[
		{
			"byteLength":2365064,
			"uri":"data:application/octet-stream;base64,"
		}
	]
}
