{
	"asset":{
		"generator":"Khronos glTF Blender I/O v3.6.27",
		"version":"2.0"
	},
	"scene":0,
	"scenes":[
		{
			"name":"Scene",
			"nodes":[
				0
			]
		}
	],
	"nodes":[
		{
			"mesh":0,
			"name":"Sword 1",
			"rotation":[
				0,
				0,
				-0.7071068286895752,
				0.7071068286895752
			],
			"scale":[
				0.23204615712165833,
				0.28298312425613403,
				0.28298312425613403
			],
			"translation":[
				0,
				4.084768295288086,
				0
			]
		}
	],
	"materials":[
		{
			"alphaMode":"BLEND",
			"doubleSided":true,
			"name":"Material.002",
			"pbrMetallicRoughness":{
				"baseColorTexture":{
					"index":0
				},
				"metallicFactor":0,
				"roughnessFactor":0.5
			}
		},
		{
			"alphaMode":"BLEND",
			"doubleSided":true,
			"name":"Material.001",
			"pbrMetallicRoughness":{
				"baseColorTexture":{
					"index":1
				},
				"metallicFactor":0.7978723049163818,
				"roughnessFactor":0.4127659797668457
			}
		},
		{
			"alphaMode":"BLEND",
			"doubleSided":true,
			"name":"Material.008",
			"pbrMetallicRoughness":{
				"baseColorTexture":{
					"index":2
				},
				"metallicFactor":0,
				"roughnessFactor":0.5
			}
		}
	],
	"meshes":[
		{
			"name":"Cylinder.003",
			"primitives":[
				{
					"attributes":{
						"POSITION":0,
						"NORMAL":1,
						"TEXCOORD_0":2
					},
					"indices":3,
					"material":0
				},
				{
					"attributes":{
						"POSITION":4,
						"NORMAL":5,
						"TEXCOORD_0":6
					},
					"indices":7,
					"material":1
				},
				{
					"attributes":{
						"POSITION":8,
						"NORMAL":9,
						"TEXCOORD_0":10
					},
					"indices":11,
					"material":2
				}
			]
		}
	],
	"textures":[
		{
			"sampler":0,
			"source":0
		},
		{
			"sampler":0,
			"source":1
		},
		{
			"sampler":0,
			"source":2
		}
	],
	"images":[
		{
			"bufferView":4,
			"mimeType":"image/jpeg",
			"name":"steel dark"
		},
		{
			"bufferView":9,
			"mimeType":"image/png",
			"name":"steel light"
		},
		{
			"bufferView":14,
			"mimeType":"image/jpeg",
			"name":"leather 5"
		}
	],
	"accessors":[
		{
			"bufferView":0,
			"componentType":5126,
			"count":1280,
			"max":[
				23.027151107788086,
				8.962026596069336,
				1.1416964530944824
			],
			"min":[
				-1,
				-1.1416970491409302,
				-1.1416964530944824
			],
			"type":"VEC3"
		},
		{
			"bufferView":1,
			"componentType":5126,
			"count":1280,
			"type":"VEC3"
		},
		{
			"bufferView":2,
			"componentType":5126,
			"count":1280,
			"type":"VEC2"
		},
		{
			"bufferView":3,
			"componentType":5123,
			"count":2088,
			"type":"SCALAR"
		},
		{
			"bufferView":5,
			"componentType":5126,
			"count":64,
			"max":[
				0.6610444784164429,
				1.3022518157958984,
				0.49240273237228394
			],
			"min":[
				-59.960540771484375,
				-1.3075186014175415,
				-0.49182701110839844
			],
			"type":"VEC3"
		},
		{
			"bufferView":6,
			"componentType":5126,
			"count":64,
			"type":"VEC3"
		},
		{
			"bufferView":7,
			"componentType":5126,
			"count":64,
			"type":"VEC2"
		},
		{
			"bufferView":8,
			"componentType":5123,
			"count":108,
			"type":"SCALAR"
		},
		{
			"bufferView":10,
			"componentType":5126,
			"count":128,
			"max":[
				17.237659454345703,
				0.8834490776062012,
				0.8834489583969116
			],
			"min":[
				2.3151626586914062,
				-0.8834488391876221,
				-0.8834489583969116
			],
			"type":"VEC3"
		},
		{
			"bufferView":11,
			"componentType":5126,
			"count":128,
			"type":"VEC3"
		},
		{
			"bufferView":12,
			"componentType":5126,
			"count":128,
			"type":"VEC2"
		},
		{
			"bufferView":13,
			"componentType":5123,
			"count":192,
			"type":"SCALAR"
		}
	],
	"bufferViews":[
		{
			"buffer":0,
			"byteLength":15360,
			"byteOffset":0,
			"target":34962
		},
		{
			"buffer":0,
			"byteLength":15360,
			"byteOffset":15360,
			"target":34962
		},
		{
			"buffer":0,
			"byteLength":10240,
			"byteOffset":30720,
			"target":34962
		},
		{
			"buffer":0,
			"byteLength":4176,
			"byteOffset":40960,
			"target":34963
		},
		{
			"buffer":0,
			"byteLength":133379,
			"byteOffset":45136
		},
		{
			"buffer":0,
			"byteLength":768,
			"byteOffset":178516,
			"target":34962
		},
		{
			"buffer":0,
			"byteLength":768,
			"byteOffset":179284,
			"target":34962
		},
		{
			"buffer":0,
			"byteLength":512,
			"byteOffset":180052,
			"target":34962
		},
		{
			"buffer":0,
			"byteLength":216,
			"byteOffset":180564,
			"target":34963
		},
		{
			"buffer":0,
			"byteLength":21918,
			"byteOffset":180780
		},
		{
			"buffer":0,
			"byteLength":1536,
			"byteOffset":202700,
			"target":34962
		},
		{
			"buffer":0,
			"byteLength":1536,
			"byteOffset":204236,
			"target":34962
		},
		{
			"buffer":0,
			"byteLength":1024,
			"byteOffset":205772,
			"target":34962
		},
		{
			"buffer":0,
			"byteLength":384,
			"byteOffset":206796,
			"target":34963
		},
		{
			"buffer":0,
			"byteLength":807872,
			"byteOffset":207180
		}
	],
	"samplers":[
		{
			"magFilter":9729,
			"minFilter":9987
		}
	],
	"buffers":[
		{
			"byteLength":1015052,
			"uri":"data:application/octet-stream;base64,"
		}
	]
}
