{
	"asset":{
		"generator":"Khronos glTF Blender I/O v3.6.27",
		"version":"2.0"
	},
	"scene":0,
	"scenes":[
		{
			"name":"Scene",
			"nodes":[
				0
			]
		}
	],
	"nodes":[
		{
			"mesh":0,
			"name":"beer logo",
			"rotation":[
				0.2648869454860687,
				0.6556180119514465,
				-0.6556180119514465,
				0.26488691568374634
			],
			"scale":[
				0.16952846944332123,
				0.16952846944332123,
				0.16952846944332123
			],
			"translation":[
				0,
				-1.7287402153015137,
				0
			]
		}
	],
	"materials":[
		{
			"alphaMode":"BLEND",
			"doubleSided":true,
			"name":"beer logo",
			"pbrMetallicRoughness":{
				"baseColorTexture":{
					"index":0
				},
				"metallicFactor":0,
				"roughnessFactor":0.5
			}
		},
		{
			"doubleSided":true,
			"name":"Material",
			"pbrMetallicRoughness":{
				"baseColorFactor":[
					0.800000011920929,
					0.800000011920929,
					0.800000011920929,
					1
				],
				"metallicFactor":0,
				"roughnessFactor":0.5
			}
		},
		{
			"doubleSided":true,
			"name":"Material.001",
			"pbrMetallicRoughness":{
				"baseColorFactor":[
					0.1064334511756897,
					0.10653480887413025,
					0.08422845602035522,
					1
				],
				"metallicFactor":0,
				"roughnessFactor":0.5
			}
		},
		{
			"doubleSided":true,
			"name":"Material.004",
			"pbrMetallicRoughness":{
				"baseColorFactor":[
					1,
					0.2902996838092804,
					0,
					1
				],
				"metallicFactor":0,
				"roughnessFactor":0.5
			}
		},
		{
			"alphaMode":"BLEND",
			"doubleSided":true,
			"name":"beer logo.001",
			"pbrMetallicRoughness":{
				"baseColorTexture":{
					"index":1
				},
				"metallicFactor":0,
				"roughnessFactor":0.5
			}
		},
		{
			"doubleSided":true,
			"name":"Material.002",
			"pbrMetallicRoughness":{
				"baseColorFactor":[
					0.800000011920929,
					0.800000011920929,
					0.800000011920929,
					1
				],
				"metallicFactor":0,
				"roughnessFactor":0.5
			}
		},
		{
			"doubleSided":true,
			"name":"Material.003",
			"pbrMetallicRoughness":{
				"baseColorFactor":[
					0.1064334511756897,
					0.10653480887413025,
					0.08422845602035522,
					1
				],
				"metallicFactor":0,
				"roughnessFactor":0.5
			}
		},
		{
			"doubleSided":true,
			"name":"Material.005",
			"pbrMetallicRoughness":{
				"baseColorFactor":[
					0.800000011920929,
					0.800000011920929,
					0.800000011920929,
					1
				],
				"metallicFactor":0,
				"roughnessFactor":0.5
			}
		},
		{
			"doubleSided":true,
			"name":"Material.006",
			"pbrMetallicRoughness":{
				"baseColorFactor":[
					0.800000011920929,
					0.800000011920929,
					0.800000011920929,
					1
				],
				"metallicFactor":0,
				"roughnessFactor":0.5
			}
		}
	],
	"meshes":[
		{
			"name":"beer logo",
			"primitives":[
				{
					"attributes":{
						"POSITION":0,
						"NORMAL":1,
						"TEXCOORD_0":2
					},
					"indices":3,
					"material":0
				},
				{
					"attributes":{
						"POSITION":4,
						"NORMAL":5,
						"TEXCOORD_0":6
					},
					"indices":7,
					"material":1
				},
				{
					"attributes":{
						"POSITION":8,
						"NORMAL":9,
						"TEXCOORD_0":10
					},
					"indices":11,
					"material":2
				},
				{
					"attributes":{
						"POSITION":12,
						"NORMAL":13,
						"TEXCOORD_0":14
					},
					"indices":15,
					"material":3
				},
				{
					"attributes":{
						"POSITION":16,
						"NORMAL":17,
						"TEXCOORD_0":18
					},
					"indices":3,
					"material":4
				},
				{
					"attributes":{
						"POSITION":19,
						"NORMAL":20,
						"TEXCOORD_0":21
					},
					"indices":7,
					"material":5
				},
				{
					"attributes":{
						"POSITION":22,
						"NORMAL":23,
						"TEXCOORD_0":24
					},
					"indices":11,
					"material":6
				},
				{
					"attributes":{
						"POSITION":25,
						"NORMAL":26,
						"TEXCOORD_0":27
					},
					"indices":28,
					"material":7
				},
				{
					"attributes":{
						"POSITION":29,
						"NORMAL":30,
						"TEXCOORD_0":31
					},
					"indices":28,
					"material":8
				}
			]
		}
	],
	"textures":[
		{
			"sampler":0,
			"source":0
		},
		{
			"sampler":0,
			"source":0
		}
	],
	"images":[
		{
			"bufferView":4,
			"mimeType":"image/png",
			"name":"beer logo"
		}
	],
	"accessors":[
		{
			"bufferView":0,
			"componentType":5126,
			"count":1089,
			"max":[
				-0.5093787312507629,
				1.3142473697662354,
				-9.987977981567383
			],
			"min":[
				-1.0856122970581055,
				1.1444528102874756,
				-10.987977981567383
			],
			"type":"VEC3"
		},
		{
			"bufferView":1,
			"componentType":5126,
			"count":1089,
			"type":"VEC3"
		},
		{
			"bufferView":2,
			"componentType":5126,
			"count":1089,
			"type":"VEC2"
		},
		{
			"bufferView":3,
			"componentType":5123,
			"count":6144,
			"type":"SCALAR"
		},
		{
			"bufferView":5,
			"componentType":5126,
			"count":164,
			"max":[
				-0.46744048595428467,
				1.3117347955703735,
				-9.939055442810059
			],
			"min":[
				-1.132946491241455,
				0.6462287306785583,
				-11.043725967407227
			],
			"type":"VEC3"
		},
		{
			"bufferView":6,
			"componentType":5126,
			"count":164,
			"type":"VEC3"
		},
		{
			"bufferView":7,
			"componentType":5126,
			"count":164,
			"type":"VEC2"
		},
		{
			"bufferView":8,
			"componentType":5123,
			"count":666,
			"type":"SCALAR"
		},
		{
			"bufferView":9,
			"componentType":5126,
			"count":131,
			"max":[
				-0.48149120807647705,
				1.2976840734481812,
				-11.043725967407227
			],
			"min":[
				-1.1188957691192627,
				0.6602794528007507,
				-11.077500343322754
			],
			"type":"VEC3"
		},
		{
			"bufferView":10,
			"componentType":5126,
			"count":131,
			"type":"VEC3"
		},
		{
			"bufferView":11,
			"componentType":5126,
			"count":131,
			"type":"VEC2"
		},
		{
			"bufferView":12,
			"componentType":5123,
			"count":474,
			"type":"SCALAR"
		},
		{
			"bufferView":13,
			"componentType":5126,
			"count":648,
			"max":[
				1.8120653629302979,
				1.8451555967330933,
				-10.196673393249512
			],
			"min":[
				-0.8678081035614014,
				-0.8640332221984863,
				-11.225719451904297
			],
			"type":"VEC3"
		},
		{
			"bufferView":14,
			"componentType":5126,
			"count":648,
			"type":"VEC3"
		},
		{
			"bufferView":15,
			"componentType":5126,
			"count":648,
			"type":"VEC2"
		},
		{
			"bufferView":16,
			"componentType":5123,
			"count":3408,
			"type":"SCALAR"
		},
		{
			"bufferView":17,
			"componentType":5126,
			"count":1089,
			"max":[
				1.286309003829956,
				-0.7595429420471191,
				-9.987977981567383
			],
			"min":[
				0.8364555239677429,
				-1.1450107097625732,
				-10.987977981567383
			],
			"type":"VEC3"
		},
		{
			"bufferView":18,
			"componentType":5126,
			"count":1089,
			"type":"VEC3"
		},
		{
			"bufferView":19,
			"componentType":5126,
			"count":1089,
			"type":"VEC2"
		},
		{
			"bufferView":20,
			"componentType":5126,
			"count":164,
			"max":[
				1.2829978466033936,
				-0.47846996784210205,
				-9.939055442810059
			],
			"min":[
				0.6197559237480164,
				-1.141711950302124,
				-11.043725967407227
			],
			"type":"VEC3"
		},
		{
			"bufferView":21,
			"componentType":5126,
			"count":164,
			"type":"VEC3"
		},
		{
			"bufferView":22,
			"componentType":5126,
			"count":164,
			"type":"VEC2"
		},
		{
			"bufferView":23,
			"componentType":5126,
			"count":131,
			"max":[
				1.2689950466156006,
				-0.4924730062484741,
				-11.043725967407227
			],
			"min":[
				0.6337589621543884,
				-1.127709150314331,
				-11.077500343322754
			],
			"type":"VEC3"
		},
		{
			"bufferView":24,
			"componentType":5126,
			"count":131,
			"type":"VEC3"
		},
		{
			"bufferView":25,
			"componentType":5126,
			"count":131,
			"type":"VEC2"
		},
		{
			"bufferView":26,
			"componentType":5126,
			"count":468,
			"max":[
				1.0757300853729248,
				1.0653413534164429,
				-10.647856712341309
			],
			"min":[
				-0.6428568363189697,
				-0.571884274482727,
				-11.074919700622559
			],
			"type":"VEC3"
		},
		{
			"bufferView":27,
			"componentType":5126,
			"count":468,
			"type":"VEC3"
		},
		{
			"bufferView":28,
			"componentType":5126,
			"count":468,
			"type":"VEC2"
		},
		{
			"bufferView":29,
			"componentType":5123,
			"count":2520,
			"type":"SCALAR"
		},
		{
			"bufferView":30,
			"componentType":5126,
			"count":468,
			"max":[
				1.1562623977661133,
				0.7534397840499878,
				-9.14007568359375
			],
			"min":[
				0.062104105949401855,
				-0.7473752498626709,
				-10.550716400146484
			],
			"type":"VEC3"
		},
		{
			"bufferView":31,
			"componentType":5126,
			"count":468,
			"type":"VEC3"
		},
		{
			"bufferView":32,
			"componentType":5126,
			"count":468,
			"type":"VEC2"
		}
	],
	"bufferViews":[
		{
			"buffer":0,
			"byteLength":13068,
			"byteOffset":0,
			"target":34962
		},
		{
			"buffer":0,
			"byteLength":13068,
			"byteOffset":13068,
			"target":34962
		},
		{
			"buffer":0,
			"byteLength":8712,
			"byteOffset":26136,
			"target":34962
		},
		{
			"buffer":0,
			"byteLength":12288,
			"byteOffset":34848,
			"target":34963
		},
		{
			"buffer":0,
			"byteLength":298953,
			"byteOffset":47136
		},
		{
			"buffer":0,
			"byteLength":1968,
			"byteOffset":346092,
			"target":34962
		},
		{
			"buffer":0,
			"byteLength":1968,
			"byteOffset":348060,
			"target":34962
		},
		{
			"buffer":0,
			"byteLength":1312,
			"byteOffset":350028,
			"target":34962
		},
		{
			"buffer":0,
			"byteLength":1332,
			"byteOffset":351340,
			"target":34963
		},
		{
			"buffer":0,
			"byteLength":1572,
			"byteOffset":352672,
			"target":34962
		},
		{
			"buffer":0,
			"byteLength":1572,
			"byteOffset":354244,
			"target":34962
		},
		{
			"buffer":0,
			"byteLength":1048,
			"byteOffset":355816,
			"target":34962
		},
		{
			"buffer":0,
			"byteLength":948,
			"byteOffset":356864,
			"target":34963
		},
		{
			"buffer":0,
			"byteLength":7776,
			"byteOffset":357812,
			"target":34962
		},
		{
			"buffer":0,
			"byteLength":7776,
			"byteOffset":365588,
			"target":34962
		},
		{
			"buffer":0,
			"byteLength":5184,
			"byteOffset":373364,
			"target":34962
		},
		{
			"buffer":0,
			"byteLength":6816,
			"byteOffset":378548,
			"target":34963
		},
		{
			"buffer":0,
			"byteLength":13068,
			"byteOffset":385364,
			"target":34962
		},
		{
			"buffer":0,
			"byteLength":13068,
			"byteOffset":398432,
			"target":34962
		},
		{
			"buffer":0,
			"byteLength":8712,
			"byteOffset":411500,
			"target":34962
		},
		{
			"buffer":0,
			"byteLength":1968,
			"byteOffset":420212,
			"target":34962
		},
		{
			"buffer":0,
			"byteLength":1968,
			"byteOffset":422180,
			"target":34962
		},
		{
			"buffer":0,
			"byteLength":1312,
			"byteOffset":424148,
			"target":34962
		},
		{
			"buffer":0,
			"byteLength":1572,
			"byteOffset":425460,
			"target":34962
		},
		{
			"buffer":0,
			"byteLength":1572,
			"byteOffset":427032,
			"target":34962
		},
		{
			"buffer":0,
			"byteLength":1048,
			"byteOffset":428604,
			"target":34962
		},
		{
			"buffer":0,
			"byteLength":5616,
			"byteOffset":429652,
			"target":34962
		},
		{
			"buffer":0,
			"byteLength":5616,
			"byteOffset":435268,
			"target":34962
		},
		{
			"buffer":0,
			"byteLength":3744,
			"byteOffset":440884,
			"target":34962
		},
		{
			"buffer":0,
			"byteLength":5040,
			"byteOffset":444628,
			"target":34963
		},
		{
			"buffer":0,
			"byteLength":5616,
			"byteOffset":449668,
			"target":34962
		},
		{
			"buffer":0,
			"byteLength":5616,
			"byteOffset":455284,
			"target":34962
		},
		{
			"buffer":0,
			"byteLength":3744,
			"byteOffset":460900,
			"target":34962
		}
	],
	"samplers":[
		{
			"magFilter":9729,
			"minFilter":9987,
			"wrapS":33071,
			"wrapT":33071
		}
	],
	"buffers":[
		{
			"byteLength":464644,
			"uri":"data:application/octet-stream;base64,"
		}
	]
}
