{
	"asset":{
		"generator":"Khronos glTF Blender I/O v3.6.27",
		"version":"2.0"
	},
	"scene":0,
	"scenes":[
		{
			"name":"Scene",
			"nodes":[
				0
			]
		}
	],
	"nodes":[
		{
			"mesh":0,
			"name":"Eazy-E hat",
			"rotation":[
				0.2648869454860687,
				0.6556180119514465,
				-0.6556180119514465,
				0.26488691568374634
			],
			"scale":[
				0.16952846944332123,
				0.16952846944332123,
				0.16952846944332123
			],
			"translation":[
				0,
				-1.7287402153015137,
				0
			]
		}
	],
	"materials":[
		{
			"doubleSided":true,
			"name":"Material.007",
			"pbrMetallicRoughness":{
				"baseColorFactor":[
					0,
					0,
					0,
					1
				],
				"metallicFactor":0
			}
		},
		{
			"alphaMode":"BLEND",
			"doubleSided":true,
			"name":"compton logo",
			"pbrMetallicRoughness":{
				"baseColorTexture":{
					"index":0
				},
				"metallicFactor":0,
				"roughnessFactor":0.5
			}
		}
	],
	"meshes":[
		{
			"name":"beer logo",
			"primitives":[
				{
					"attributes":{
						"POSITION":0,
						"NORMAL":1,
						"TEXCOORD_0":2
					},
					"indices":3,
					"material":0
				},
				{
					"attributes":{
						"POSITION":4,
						"NORMAL":5,
						"TEXCOORD_0":6
					},
					"indices":7,
					"material":1
				}
			]
		}
	],
	"textures":[
		{
			"sampler":0,
			"source":0
		}
	],
	"images":[
		{
			"bufferView":8,
			"mimeType":"image/png",
			"name":"compton logo"
		}
	],
	"accessors":[
		{
			"bufferView":0,
			"componentType":5126,
			"count":648,
			"max":[
				1.8120653629302979,
				1.8451555967330933,
				-10.196673393249512
			],
			"min":[
				-0.8678081035614014,
				-0.8640332221984863,
				-11.225719451904297
			],
			"type":"VEC3"
		},
		{
			"bufferView":1,
			"componentType":5126,
			"count":648,
			"type":"VEC3"
		},
		{
			"bufferView":2,
			"componentType":5126,
			"count":648,
			"type":"VEC2"
		},
		{
			"bufferView":3,
			"componentType":5123,
			"count":3408,
			"type":"SCALAR"
		},
		{
			"bufferView":4,
			"componentType":5126,
			"count":2784,
			"max":[
				1.069576621055603,
				1.0733814239501953,
				-10.41448974609375
			],
			"min":[
				-0.2400975227355957,
				-0.21178722381591797,
				-10.847416877746582
			],
			"type":"VEC3"
		},
		{
			"bufferView":5,
			"componentType":5126,
			"count":2784,
			"type":"VEC3"
		},
		{
			"bufferView":6,
			"componentType":5126,
			"count":2784,
			"type":"VEC2"
		},
		{
			"bufferView":7,
			"componentType":5123,
			"count":6144,
			"type":"SCALAR"
		}
	],
	"bufferViews":[
		{
			"buffer":0,
			"byteLength":7776,
			"byteOffset":0,
			"target":34962
		},
		{
			"buffer":0,
			"byteLength":7776,
			"byteOffset":7776,
			"target":34962
		},
		{
			"buffer":0,
			"byteLength":5184,
			"byteOffset":15552,
			"target":34962
		},
		{
			"buffer":0,
			"byteLength":6816,
			"byteOffset":20736,
			"target":34963
		},
		{
			"buffer":0,
			"byteLength":33408,
			"byteOffset":27552,
			"target":34962
		},
		{
			"buffer":0,
			"byteLength":33408,
			"byteOffset":60960,
			"target":34962
		},
		{
			"buffer":0,
			"byteLength":22272,
			"byteOffset":94368,
			"target":34962
		},
		{
			"buffer":0,
			"byteLength":12288,
			"byteOffset":116640,
			"target":34963
		},
		{
			"buffer":0,
			"byteLength":16506,
			"byteOffset":128928
		}
	],
	"samplers":[
		{
			"magFilter":9729,
			"minFilter":9987,
			"wrapS":33071,
			"wrapT":33071
		}
	],
	"buffers":[
		{
			"byteLength":145436,
			"uri":"data:application/octet-stream;base64,"
		}
	]
}
