{
	"asset":{
		"generator":"Khronos glTF Blender I/O v3.6.27",
		"version":"2.0"
	},
	"scene":0,
	"scenes":[
		{
			"name":"Scene",
			"nodes":[
				0
			]
		}
	],
	"nodes":[
		{
			"mesh":0,
			"name":"Jester hat",
			"rotation":[
				0,
				0.212141215801239,
				0,
				0.9772390127182007
			],
			"scale":[
				0.14879553020000458,
				0.14879554510116577,
				0.14879553020000458
			]
		}
	],
	"materials":[
		{
			"doubleSided":true,
			"name":"Material.003",
			"pbrMetallicRoughness":{
				"baseColorFactor":[
					0.8000000715255737,
					0.6869706511497498,
					0,
					1
				],
				"metallicFactor":0,
				"roughnessFactor":0.5
			}
		},
		{
			"doubleSided":true,
			"name":"Material.006",
			"pbrMetallicRoughness":{
				"baseColorFactor":[
					0.8000000715255737,
					0,
					0.3670330047607422,
					1
				],
				"metallicFactor":0,
				"roughnessFactor":0.5
			}
		},
		{
			"doubleSided":true,
			"name":"Material.007",
			"pbrMetallicRoughness":{
				"baseColorFactor":[
					0.010010390542447567,
					0.8000000715255737,
					0,
					1
				],
				"metallicFactor":0,
				"roughnessFactor":0.5
			}
		},
		{
			"doubleSided":true,
			"name":"Material.008",
			"pbrMetallicRoughness":{
				"baseColorFactor":[
					0.8000000715255737,
					0.0965641587972641,
					0,
					1
				],
				"metallicFactor":0,
				"roughnessFactor":0.5
			}
		},
		{
			"doubleSided":true,
			"name":"Material.009",
			"pbrMetallicRoughness":{
				"baseColorFactor":[
					0.0015478665009140968,
					1,
					0.36720243096351624,
					1
				],
				"metallicFactor":0,
				"roughnessFactor":0.5
			}
		},
		{
			"doubleSided":true,
			"name":"Material.002",
			"pbrMetallicRoughness":{
				"baseColorFactor":[
					0.007246801164001226,
					0,
					0.8000000715255737,
					1
				],
				"metallicFactor":0,
				"roughnessFactor":0.5
			}
		},
		{
			"doubleSided":true,
			"name":"Material.001",
			"pbrMetallicRoughness":{
				"baseColorFactor":[
					0.8000000715255737,
					0,
					0.006451162043958902,
					1
				],
				"metallicFactor":0,
				"roughnessFactor":0.5
			}
		},
		{
			"doubleSided":true,
			"name":"Material.004",
			"pbrMetallicRoughness":{
				"baseColorFactor":[
					0.11068882793188095,
					0.11068882793188095,
					0.11068882793188095,
					1
				],
				"metallicFactor":0,
				"roughnessFactor":0.5
			}
		}
	],
	"meshes":[
		{
			"name":"Cone",
			"primitives":[
				{
					"attributes":{
						"POSITION":0,
						"NORMAL":1,
						"TEXCOORD_0":2
					},
					"indices":3,
					"material":0
				},
				{
					"attributes":{
						"POSITION":4,
						"NORMAL":5,
						"TEXCOORD_0":6
					},
					"indices":7,
					"material":1
				},
				{
					"attributes":{
						"POSITION":8,
						"NORMAL":9,
						"TEXCOORD_0":10
					},
					"indices":11,
					"material":2
				},
				{
					"attributes":{
						"POSITION":12,
						"NORMAL":13,
						"TEXCOORD_0":14
					},
					"indices":15,
					"material":3
				},
				{
					"attributes":{
						"POSITION":16,
						"NORMAL":17,
						"TEXCOORD_0":18
					},
					"indices":19,
					"material":4
				},
				{
					"attributes":{
						"POSITION":20,
						"NORMAL":21,
						"TEXCOORD_0":22
					},
					"indices":3,
					"material":5
				},
				{
					"attributes":{
						"POSITION":23,
						"NORMAL":24,
						"TEXCOORD_0":25
					},
					"indices":3,
					"material":6
				},
				{
					"attributes":{
						"POSITION":26,
						"NORMAL":27,
						"TEXCOORD_0":28
					},
					"indices":29,
					"material":7
				}
			]
		}
	],
	"accessors":[
		{
			"bufferView":0,
			"componentType":5126,
			"count":225,
			"max":[
				0.5608518123626709,
				1.6096454858779907,
				2.3181395530700684
			],
			"min":[
				-0.30530714988708496,
				-0.7503394484519958,
				0.21293100714683533
			],
			"type":"VEC3"
		},
		{
			"bufferView":1,
			"componentType":5126,
			"count":225,
			"type":"VEC3"
		},
		{
			"bufferView":2,
			"componentType":5126,
			"count":225,
			"type":"VEC2"
		},
		{
			"bufferView":3,
			"componentType":5123,
			"count":1146,
			"type":"SCALAR"
		},
		{
			"bufferView":4,
			"componentType":5126,
			"count":36,
			"max":[
				0.6107643246650696,
				1.0426042079925537,
				-0.005290903151035309
			],
			"min":[
				-0.9255911707878113,
				0.21607959270477295,
				-1.003185510635376
			],
			"type":"VEC3"
		},
		{
			"bufferView":5,
			"componentType":5126,
			"count":36,
			"type":"VEC3"
		},
		{
			"bufferView":6,
			"componentType":5126,
			"count":36,
			"type":"VEC2"
		},
		{
			"bufferView":7,
			"componentType":5123,
			"count":90,
			"type":"SCALAR"
		},
		{
			"bufferView":8,
			"componentType":5126,
			"count":37,
			"max":[
				1.0551941394805908,
				1.0426042079925537,
				0.9206939935684204
			],
			"min":[
				0.04826098680496216,
				0.21607959270477295,
				-0.8346549272537231
			],
			"type":"VEC3"
		},
		{
			"bufferView":9,
			"componentType":5126,
			"count":37,
			"type":"VEC3"
		},
		{
			"bufferView":10,
			"componentType":5126,
			"count":37,
			"type":"VEC2"
		},
		{
			"bufferView":11,
			"componentType":5123,
			"count":99,
			"type":"SCALAR"
		},
		{
			"bufferView":12,
			"componentType":5126,
			"count":37,
			"max":[
				0.4378775358200073,
				1.0426042079925537,
				0.9968146085739136
			],
			"min":[
				-0.944805920124054,
				0.21607959270477295,
				-0.19827574491500854
			],
			"type":"VEC3"
		},
		{
			"bufferView":13,
			"componentType":5126,
			"count":37,
			"type":"VEC3"
		},
		{
			"bufferView":14,
			"componentType":5126,
			"count":37,
			"type":"VEC2"
		},
		{
			"bufferView":15,
			"componentType":5123,
			"count":99,
			"type":"SCALAR"
		},
		{
			"bufferView":16,
			"componentType":5126,
			"count":228,
			"max":[
				1.0551941394805908,
				0.7630828022956848,
				0.9968146085739136
			],
			"min":[
				-0.944805920124054,
				0.01307351142168045,
				-1.003185510635376
			],
			"type":"VEC3"
		},
		{
			"bufferView":17,
			"componentType":5126,
			"count":228,
			"type":"VEC3"
		},
		{
			"bufferView":18,
			"componentType":5126,
			"count":228,
			"type":"VEC2"
		},
		{
			"bufferView":19,
			"componentType":5123,
			"count":666,
			"type":"SCALAR"
		},
		{
			"bufferView":20,
			"componentType":5126,
			"count":225,
			"max":[
				1.9025726318359375,
				1.7267769575119019,
				0.1660352647304535
			],
			"min":[
				-0.023417409509420395,
				-0.47709864377975464,
				-1.7201457023620605
			],
			"type":"VEC3"
		},
		{
			"bufferView":21,
			"componentType":5126,
			"count":225,
			"type":"VEC3"
		},
		{
			"bufferView":22,
			"componentType":5126,
			"count":225,
			"type":"VEC2"
		},
		{
			"bufferView":23,
			"componentType":5126,
			"count":225,
			"max":[
				-0.06164496764540672,
				1.5323423147201538,
				0.6366869211196899
			],
			"min":[
				-2.4738407135009766,
				-0.4291033148765564,
				-0.24238485097885132
			],
			"type":"VEC3"
		},
		{
			"bufferView":24,
			"componentType":5126,
			"count":225,
			"type":"VEC3"
		},
		{
			"bufferView":25,
			"componentType":5126,
			"count":225,
			"type":"VEC2"
		},
		{
			"bufferView":26,
			"componentType":5126,
			"count":1677,
			"max":[
				1.5252355337142944,
				-0.2714462876319885,
				1.9520392417907715
			],
			"min":[
				-2.495436191558838,
				-0.9196898341178894,
				-1.2119663953781128
			],
			"type":"VEC3"
		},
		{
			"bufferView":27,
			"componentType":5126,
			"count":1677,
			"type":"VEC3"
		},
		{
			"bufferView":28,
			"componentType":5126,
			"count":1677,
			"type":"VEC2"
		},
		{
			"bufferView":29,
			"componentType":5123,
			"count":8640,
			"type":"SCALAR"
		}
	],
	"bufferViews":[
		{
			"buffer":0,
			"byteLength":2700,
			"byteOffset":0,
			"target":34962
		},
		{
			"buffer":0,
			"byteLength":2700,
			"byteOffset":2700,
			"target":34962
		},
		{
			"buffer":0,
			"byteLength":1800,
			"byteOffset":5400,
			"target":34962
		},
		{
			"buffer":0,
			"byteLength":2292,
			"byteOffset":7200,
			"target":34963
		},
		{
			"buffer":0,
			"byteLength":432,
			"byteOffset":9492,
			"target":34962
		},
		{
			"buffer":0,
			"byteLength":432,
			"byteOffset":9924,
			"target":34962
		},
		{
			"buffer":0,
			"byteLength":288,
			"byteOffset":10356,
			"target":34962
		},
		{
			"buffer":0,
			"byteLength":180,
			"byteOffset":10644,
			"target":34963
		},
		{
			"buffer":0,
			"byteLength":444,
			"byteOffset":10824,
			"target":34962
		},
		{
			"buffer":0,
			"byteLength":444,
			"byteOffset":11268,
			"target":34962
		},
		{
			"buffer":0,
			"byteLength":296,
			"byteOffset":11712,
			"target":34962
		},
		{
			"buffer":0,
			"byteLength":198,
			"byteOffset":12008,
			"target":34963
		},
		{
			"buffer":0,
			"byteLength":444,
			"byteOffset":12208,
			"target":34962
		},
		{
			"buffer":0,
			"byteLength":444,
			"byteOffset":12652,
			"target":34962
		},
		{
			"buffer":0,
			"byteLength":296,
			"byteOffset":13096,
			"target":34962
		},
		{
			"buffer":0,
			"byteLength":198,
			"byteOffset":13392,
			"target":34963
		},
		{
			"buffer":0,
			"byteLength":2736,
			"byteOffset":13592,
			"target":34962
		},
		{
			"buffer":0,
			"byteLength":2736,
			"byteOffset":16328,
			"target":34962
		},
		{
			"buffer":0,
			"byteLength":1824,
			"byteOffset":19064,
			"target":34962
		},
		{
			"buffer":0,
			"byteLength":1332,
			"byteOffset":20888,
			"target":34963
		},
		{
			"buffer":0,
			"byteLength":2700,
			"byteOffset":22220,
			"target":34962
		},
		{
			"buffer":0,
			"byteLength":2700,
			"byteOffset":24920,
			"target":34962
		},
		{
			"buffer":0,
			"byteLength":1800,
			"byteOffset":27620,
			"target":34962
		},
		{
			"buffer":0,
			"byteLength":2700,
			"byteOffset":29420,
			"target":34962
		},
		{
			"buffer":0,
			"byteLength":2700,
			"byteOffset":32120,
			"target":34962
		},
		{
			"buffer":0,
			"byteLength":1800,
			"byteOffset":34820,
			"target":34962
		},
		{
			"buffer":0,
			"byteLength":20124,
			"byteOffset":36620,
			"target":34962
		},
		{
			"buffer":0,
			"byteLength":20124,
			"byteOffset":56744,
			"target":34962
		},
		{
			"buffer":0,
			"byteLength":13416,
			"byteOffset":76868,
			"target":34962
		},
		{
			"buffer":0,
			"byteLength":17280,
			"byteOffset":90284,
			"target":34963
		}
	],
	"buffers":[
		{
			"byteLength":107564,
			"uri":"data:application/octet-stream;base64,"
		}
	]
}
