{
	"asset":{
		"generator":"Khronos glTF Blender I/O v3.6.27",
		"version":"2.0"
	},
	"scene":0,
	"scenes":[
		{
			"name":"Scene",
			"nodes":[
				0
			]
		}
	],
	"nodes":[
		{
			"mesh":0,
			"name":"Magician's hat",
			"scale":[
				0.11465029418468475,
				0.11465029418468475,
				0.11465029418468475
			],
			"translation":[
				2.318916585863917e-06,
				1.9138582944869995,
				-0.032795269042253494
			]
		}
	],
	"materials":[
		{
			"doubleSided":true,
			"name":"Material.001",
			"pbrMetallicRoughness":{
				"baseColorFactor":[
					0,
					0,
					0,
					1
				],
				"metallicFactor":0,
				"roughnessFactor":0.5
			}
		},
		{
			"doubleSided":true,
			"name":"Material.002",
			"pbrMetallicRoughness":{
				"baseColorFactor":[
					0.67384934425354,
					0.009062504395842552,
					0.001443469082005322,
					1
				],
				"metallicFactor":0,
				"roughnessFactor":0.5
			}
		},
		{
			"doubleSided":true,
			"name":"Material.003",
			"pbrMetallicRoughness":{
				"baseColorFactor":[
					0.14731408655643463,
					0.14731408655643463,
					0.14731408655643463,
					1
				],
				"metallicFactor":0,
				"roughnessFactor":0.5
			}
		}
	],
	"meshes":[
		{
			"name":"Cylinder",
			"primitives":[
				{
					"attributes":{
						"POSITION":0,
						"NORMAL":1,
						"TEXCOORD_0":2
					},
					"indices":3,
					"material":0
				},
				{
					"attributes":{
						"POSITION":4,
						"NORMAL":5,
						"TEXCOORD_0":6
					},
					"indices":7,
					"material":1
				},
				{
					"attributes":{
						"POSITION":8,
						"NORMAL":9,
						"TEXCOORD_0":10
					},
					"indices":11,
					"material":2
				}
			]
		}
	],
	"accessors":[
		{
			"bufferView":0,
			"componentType":5126,
			"count":544,
			"max":[
				1.5477797985076904,
				1.6637556552886963,
				1.5477797985076904
			],
			"min":[
				-1.5477797985076904,
				-0.32889318466186523,
				-1.5477797985076904
			],
			"type":"VEC3"
		},
		{
			"bufferView":1,
			"componentType":5126,
			"count":544,
			"type":"VEC3"
		},
		{
			"bufferView":2,
			"componentType":5126,
			"count":544,
			"type":"VEC2"
		},
		{
			"bufferView":3,
			"componentType":5123,
			"count":1050,
			"type":"SCALAR"
		},
		{
			"bufferView":4,
			"componentType":5126,
			"count":192,
			"max":[
				1,
				0.12392222881317139,
				1
			],
			"min":[
				-1,
				-0.2864553928375244,
				-1
			],
			"type":"VEC3"
		},
		{
			"bufferView":5,
			"componentType":5126,
			"count":192,
			"type":"VEC3"
		},
		{
			"bufferView":6,
			"componentType":5126,
			"count":192,
			"type":"VEC2"
		},
		{
			"bufferView":7,
			"componentType":5123,
			"count":384,
			"type":"SCALAR"
		},
		{
			"bufferView":8,
			"componentType":5126,
			"count":32,
			"max":[
				1,
				0.12392222881317139,
				1
			],
			"min":[
				-1,
				0.12392222881317139,
				-1
			],
			"type":"VEC3"
		},
		{
			"bufferView":9,
			"componentType":5126,
			"count":32,
			"type":"VEC3"
		},
		{
			"bufferView":10,
			"componentType":5126,
			"count":32,
			"type":"VEC2"
		},
		{
			"bufferView":11,
			"componentType":5123,
			"count":90,
			"type":"SCALAR"
		}
	],
	"bufferViews":[
		{
			"buffer":0,
			"byteLength":6528,
			"byteOffset":0,
			"target":34962
		},
		{
			"buffer":0,
			"byteLength":6528,
			"byteOffset":6528,
			"target":34962
		},
		{
			"buffer":0,
			"byteLength":4352,
			"byteOffset":13056,
			"target":34962
		},
		{
			"buffer":0,
			"byteLength":2100,
			"byteOffset":17408,
			"target":34963
		},
		{
			"buffer":0,
			"byteLength":2304,
			"byteOffset":19508,
			"target":34962
		},
		{
			"buffer":0,
			"byteLength":2304,
			"byteOffset":21812,
			"target":34962
		},
		{
			"buffer":0,
			"byteLength":1536,
			"byteOffset":24116,
			"target":34962
		},
		{
			"buffer":0,
			"byteLength":768,
			"byteOffset":25652,
			"target":34963
		},
		{
			"buffer":0,
			"byteLength":384,
			"byteOffset":26420,
			"target":34962
		},
		{
			"buffer":0,
			"byteLength":384,
			"byteOffset":26804,
			"target":34962
		},
		{
			"buffer":0,
			"byteLength":256,
			"byteOffset":27188,
			"target":34962
		},
		{
			"buffer":0,
			"byteLength":180,
			"byteOffset":27444,
			"target":34963
		}
	],
	"buffers":[
		{
			"byteLength":27624,
			"uri":"data:application/octet-stream;base64,"
		}
	]
}
