{
	"asset":{
		"generator":"Khronos glTF Blender I/O v3.6.27",
		"version":"2.0"
	},
	"scene":0,
	"scenes":[
		{
			"name":"Scene",
			"nodes":[
				0
			]
		}
	],
	"nodes":[
		{
			"mesh":0,
			"name":"PInwheel hat",
			"rotation":[
				0,
				0.7071068286895752,
				0,
				0.7071068286895752
			],
			"scale":[
				0.028301533311605453,
				0.028301533311605453,
				0.028301533311605453
			],
			"translation":[
				0.003537386655807495,
				1.8158729076385498,
				-0.039455533027648926
			]
		}
	],
	"materials":[
		{
			"doubleSided":true,
			"name":"Material.009",
			"pbrMetallicRoughness":{
				"baseColorFactor":[
					0,
					1,
					0.08531665056943893,
					1
				],
				"metallicFactor":0,
				"roughnessFactor":0.5
			}
		},
		{
			"doubleSided":true,
			"name":"Material.001",
			"pbrMetallicRoughness":{
				"baseColorFactor":[
					0.8000000715255737,
					0,
					0.0020090676844120026,
					1
				],
				"metallicFactor":0,
				"roughnessFactor":0.5
			}
		},
		{
			"doubleSided":true,
			"name":"Material.002",
			"pbrMetallicRoughness":{
				"baseColorFactor":[
					0.8000000715255737,
					0.10205087810754776,
					0,
					1
				],
				"metallicFactor":0,
				"roughnessFactor":0.5
			}
		},
		{
			"doubleSided":true,
			"name":"Material.003",
			"pbrMetallicRoughness":{
				"baseColorFactor":[
					0.7828354835510254,
					0.8000000715255737,
					0,
					1
				],
				"metallicFactor":0,
				"roughnessFactor":0.5
			}
		},
		{
			"doubleSided":true,
			"name":"Material.004",
			"pbrMetallicRoughness":{
				"baseColorFactor":[
					0,
					0.32637521624565125,
					0.0037797975819557905,
					1
				],
				"metallicFactor":0,
				"roughnessFactor":0.5
			}
		},
		{
			"doubleSided":true,
			"name":"Material.005",
			"pbrMetallicRoughness":{
				"baseColorFactor":[
					0,
					0.34344422817230225,
					0.8000000715255737,
					1
				],
				"metallicFactor":0,
				"roughnessFactor":0.5
			}
		},
		{
			"doubleSided":true,
			"name":"Material.006",
			"pbrMetallicRoughness":{
				"baseColorFactor":[
					0.01440614927560091,
					0,
					0.8000000715255737,
					1
				],
				"metallicFactor":0,
				"roughnessFactor":0.5
			}
		},
		{
			"doubleSided":true,
			"name":"Material.007",
			"pbrMetallicRoughness":{
				"baseColorFactor":[
					0,
					0.004241825547069311,
					0,
					1
				],
				"metallicFactor":0,
				"roughnessFactor":0.5
			}
		},
		{
			"doubleSided":true,
			"name":"Material.008",
			"pbrMetallicRoughness":{
				"baseColorFactor":[
					0.8000000715255737,
					0.26600155234336853,
					0.23101820051670074,
					1
				],
				"metallicFactor":0,
				"roughnessFactor":0.5
			}
		}
	],
	"meshes":[
		{
			"name":"Cube.001",
			"primitives":[
				{
					"attributes":{
						"POSITION":0,
						"NORMAL":1,
						"TEXCOORD_0":2
					},
					"indices":3,
					"material":0
				},
				{
					"attributes":{
						"POSITION":4,
						"NORMAL":5,
						"TEXCOORD_0":6
					},
					"indices":7,
					"material":1
				},
				{
					"attributes":{
						"POSITION":8,
						"NORMAL":9,
						"TEXCOORD_0":10
					},
					"indices":11,
					"material":2
				},
				{
					"attributes":{
						"POSITION":12,
						"NORMAL":13,
						"TEXCOORD_0":14
					},
					"indices":15,
					"material":3
				},
				{
					"attributes":{
						"POSITION":16,
						"NORMAL":17,
						"TEXCOORD_0":18
					},
					"indices":19,
					"material":4
				},
				{
					"attributes":{
						"POSITION":20,
						"NORMAL":21,
						"TEXCOORD_0":22
					},
					"indices":23,
					"material":5
				},
				{
					"attributes":{
						"POSITION":24,
						"NORMAL":25,
						"TEXCOORD_0":26
					},
					"indices":27,
					"material":6
				},
				{
					"attributes":{
						"POSITION":28,
						"NORMAL":29,
						"TEXCOORD_0":30
					},
					"indices":31,
					"material":7
				},
				{
					"attributes":{
						"POSITION":32,
						"NORMAL":33,
						"TEXCOORD_0":34
					},
					"indices":35,
					"material":8
				}
			]
		}
	],
	"accessors":[
		{
			"bufferView":0,
			"componentType":5126,
			"count":268,
			"max":[
				8.265637397766113,
				-1.6588685512542725,
				4.126190662384033
			],
			"min":[
				-4.445183753967285,
				-2.80759596824646,
				-4.104531764984131
			],
			"type":"VEC3"
		},
		{
			"bufferView":1,
			"componentType":5126,
			"count":268,
			"type":"VEC3"
		},
		{
			"bufferView":2,
			"componentType":5126,
			"count":268,
			"type":"VEC2"
		},
		{
			"bufferView":3,
			"componentType":5123,
			"count":594,
			"type":"SCALAR"
		},
		{
			"bufferView":4,
			"componentType":5126,
			"count":315,
			"max":[
				4.23588752746582,
				2.601527452468872,
				4.57654333114624
			],
			"min":[
				-4.895534992218018,
				-1.9641873836517334,
				-4.554882526397705
			],
			"type":"VEC3"
		},
		{
			"bufferView":5,
			"componentType":5126,
			"count":315,
			"type":"VEC3"
		},
		{
			"bufferView":6,
			"componentType":5126,
			"count":315,
			"type":"VEC2"
		},
		{
			"bufferView":7,
			"componentType":5123,
			"count":603,
			"type":"SCALAR"
		},
		{
			"bufferView":8,
			"componentType":5126,
			"count":186,
			"max":[
				4.23588752746582,
				2.601527452468872,
				4.228999614715576
			],
			"min":[
				-0.32982510328292847,
				-1.9641873836517334,
				0.010831565596163273
			],
			"type":"VEC3"
		},
		{
			"bufferView":9,
			"componentType":5126,
			"count":186,
			"type":"VEC3"
		},
		{
			"bufferView":10,
			"componentType":5126,
			"count":186,
			"type":"VEC2"
		},
		{
			"bufferView":11,
			"componentType":5123,
			"count":270,
			"type":"SCALAR"
		},
		{
			"bufferView":12,
			"componentType":5126,
			"count":217,
			"max":[
				4.23588752746582,
				2.601527452468872,
				0.010832519270479679
			],
			"min":[
				-0.32982510328292847,
				-1.9641873836517334,
				-4.467154026031494
			],
			"type":"VEC3"
		},
		{
			"bufferView":13,
			"componentType":5126,
			"count":217,
			"type":"VEC3"
		},
		{
			"bufferView":14,
			"componentType":5126,
			"count":217,
			"type":"VEC2"
		},
		{
			"bufferView":15,
			"componentType":5123,
			"count":315,
			"type":"SCALAR"
		},
		{
			"bufferView":16,
			"componentType":5126,
			"count":186,
			"max":[
				0.5609015822410583,
				2.601527452468872,
				0.010831804014742374
			],
			"min":[
				-4.126072406768799,
				-1.9641873836517334,
				-4.554882526397705
			],
			"type":"VEC3"
		},
		{
			"bufferView":17,
			"componentType":5126,
			"count":186,
			"type":"VEC3"
		},
		{
			"bufferView":18,
			"componentType":5126,
			"count":186,
			"type":"VEC2"
		},
		{
			"bufferView":19,
			"componentType":5123,
			"count":270,
			"type":"SCALAR"
		},
		{
			"bufferView":20,
			"componentType":5126,
			"count":186,
			"max":[
				-0.32982510328292847,
				2.601527452468872,
				2.54740309715271
			],
			"min":[
				-4.895534992218018,
				-1.9641873836517334,
				-2.525742292404175
			],
			"type":"VEC3"
		},
		{
			"bufferView":21,
			"componentType":5126,
			"count":186,
			"type":"VEC3"
		},
		{
			"bufferView":22,
			"componentType":5126,
			"count":186,
			"type":"VEC2"
		},
		{
			"bufferView":23,
			"componentType":5123,
			"count":270,
			"type":"SCALAR"
		},
		{
			"bufferView":24,
			"componentType":5126,
			"count":28,
			"max":[
				0.19128361344337463,
				5.481348991394043,
				3.2163732051849365
			],
			"min":[
				-0.8397064805030823,
				4.184470176696777,
				-3.376450300216675
			],
			"type":"VEC3"
		},
		{
			"bufferView":25,
			"componentType":5126,
			"count":28,
			"type":"VEC3"
		},
		{
			"bufferView":26,
			"componentType":5126,
			"count":28,
			"type":"VEC2"
		},
		{
			"bufferView":27,
			"componentType":5123,
			"count":48,
			"type":"SCALAR"
		},
		{
			"bufferView":28,
			"componentType":5126,
			"count":128,
			"max":[
				-0.26422280073165894,
				5.104811668395996,
				0.07643434405326843
			],
			"min":[
				-0.39542776346206665,
				2.5633137226104736,
				-0.054770734161138535
			],
			"type":"VEC3"
		},
		{
			"bufferView":29,
			"componentType":5126,
			"count":128,
			"type":"VEC3"
		},
		{
			"bufferView":30,
			"componentType":5126,
			"count":128,
			"type":"VEC2"
		},
		{
			"bufferView":31,
			"componentType":5123,
			"count":192,
			"type":"SCALAR"
		},
		{
			"bufferView":32,
			"componentType":5126,
			"count":2016,
			"max":[
				-0.2286674678325653,
				5.279234886169434,
				0.11198922991752625
			],
			"min":[
				-0.43098241090774536,
				5.076918601989746,
				-0.09032586216926575
			],
			"type":"VEC3"
		},
		{
			"bufferView":33,
			"componentType":5126,
			"count":2016,
			"type":"VEC3"
		},
		{
			"bufferView":34,
			"componentType":5126,
			"count":2016,
			"type":"VEC2"
		},
		{
			"bufferView":35,
			"componentType":5123,
			"count":2970,
			"type":"SCALAR"
		}
	],
	"bufferViews":[
		{
			"buffer":0,
			"byteLength":3216,
			"byteOffset":0,
			"target":34962
		},
		{
			"buffer":0,
			"byteLength":3216,
			"byteOffset":3216,
			"target":34962
		},
		{
			"buffer":0,
			"byteLength":2144,
			"byteOffset":6432,
			"target":34962
		},
		{
			"buffer":0,
			"byteLength":1188,
			"byteOffset":8576,
			"target":34963
		},
		{
			"buffer":0,
			"byteLength":3780,
			"byteOffset":9764,
			"target":34962
		},
		{
			"buffer":0,
			"byteLength":3780,
			"byteOffset":13544,
			"target":34962
		},
		{
			"buffer":0,
			"byteLength":2520,
			"byteOffset":17324,
			"target":34962
		},
		{
			"buffer":0,
			"byteLength":1206,
			"byteOffset":19844,
			"target":34963
		},
		{
			"buffer":0,
			"byteLength":2232,
			"byteOffset":21052,
			"target":34962
		},
		{
			"buffer":0,
			"byteLength":2232,
			"byteOffset":23284,
			"target":34962
		},
		{
			"buffer":0,
			"byteLength":1488,
			"byteOffset":25516,
			"target":34962
		},
		{
			"buffer":0,
			"byteLength":540,
			"byteOffset":27004,
			"target":34963
		},
		{
			"buffer":0,
			"byteLength":2604,
			"byteOffset":27544,
			"target":34962
		},
		{
			"buffer":0,
			"byteLength":2604,
			"byteOffset":30148,
			"target":34962
		},
		{
			"buffer":0,
			"byteLength":1736,
			"byteOffset":32752,
			"target":34962
		},
		{
			"buffer":0,
			"byteLength":630,
			"byteOffset":34488,
			"target":34963
		},
		{
			"buffer":0,
			"byteLength":2232,
			"byteOffset":35120,
			"target":34962
		},
		{
			"buffer":0,
			"byteLength":2232,
			"byteOffset":37352,
			"target":34962
		},
		{
			"buffer":0,
			"byteLength":1488,
			"byteOffset":39584,
			"target":34962
		},
		{
			"buffer":0,
			"byteLength":540,
			"byteOffset":41072,
			"target":34963
		},
		{
			"buffer":0,
			"byteLength":2232,
			"byteOffset":41612,
			"target":34962
		},
		{
			"buffer":0,
			"byteLength":2232,
			"byteOffset":43844,
			"target":34962
		},
		{
			"buffer":0,
			"byteLength":1488,
			"byteOffset":46076,
			"target":34962
		},
		{
			"buffer":0,
			"byteLength":540,
			"byteOffset":47564,
			"target":34963
		},
		{
			"buffer":0,
			"byteLength":336,
			"byteOffset":48104,
			"target":34962
		},
		{
			"buffer":0,
			"byteLength":336,
			"byteOffset":48440,
			"target":34962
		},
		{
			"buffer":0,
			"byteLength":224,
			"byteOffset":48776,
			"target":34962
		},
		{
			"buffer":0,
			"byteLength":96,
			"byteOffset":49000,
			"target":34963
		},
		{
			"buffer":0,
			"byteLength":1536,
			"byteOffset":49096,
			"target":34962
		},
		{
			"buffer":0,
			"byteLength":1536,
			"byteOffset":50632,
			"target":34962
		},
		{
			"buffer":0,
			"byteLength":1024,
			"byteOffset":52168,
			"target":34962
		},
		{
			"buffer":0,
			"byteLength":384,
			"byteOffset":53192,
			"target":34963
		},
		{
			"buffer":0,
			"byteLength":24192,
			"byteOffset":53576,
			"target":34962
		},
		{
			"buffer":0,
			"byteLength":24192,
			"byteOffset":77768,
			"target":34962
		},
		{
			"buffer":0,
			"byteLength":16128,
			"byteOffset":101960,
			"target":34962
		},
		{
			"buffer":0,
			"byteLength":5940,
			"byteOffset":118088,
			"target":34963
		}
	],
	"buffers":[
		{
			"byteLength":124028,
			"uri":"data:application/octet-stream;base64,"
		}
	]
}
