{
	"asset":{
		"generator":"Khronos glTF Blender I/O v3.6.27",
		"version":"2.0"
	},
	"scene":0,
	"scenes":[
		{
			"name":"Scene",
			"nodes":[
				0
			]
		}
	],
	"nodes":[
		{
			"mesh":0,
			"name":"Silent G like spaghetti",
			"scale":[
				0.2942284047603607,
				0.2942284047603607,
				0.2942284047603607
			],
			"translation":[
				-0.0007364536868408322,
				0.29445260763168335,
				0.0026895925402641296
			]
		}
	],
	"materials":[
		{
			"doubleSided":true,
			"name":"Material.001",
			"pbrMetallicRoughness":{
				"baseColorFactor":[
					0.1574339121580124,
					0.1574339121580124,
					0.1574339121580124,
					1
				],
				"metallicFactor":0,
				"roughnessFactor":0.5
			}
		},
		{
			"doubleSided":true,
			"name":"Material.002",
			"pbrMetallicRoughness":{
				"baseColorFactor":[
					1,
					0,
					0,
					1
				],
				"metallicFactor":0,
				"roughnessFactor":0.5
			}
		},
		{
			"doubleSided":true,
			"name":"Material.007",
			"pbrMetallicRoughness":{
				"baseColorFactor":[
					0.22025705873966217,
					0.04610641300678253,
					0,
					1
				],
				"metallicFactor":0,
				"roughnessFactor":0.5
			}
		},
		{
			"doubleSided":true,
			"name":"Material.009",
			"pbrMetallicRoughness":{
				"baseColorFactor":[
					0.22025705873966217,
					0.04610641300678253,
					0,
					1
				],
				"metallicFactor":0,
				"roughnessFactor":0.5
			}
		},
		{
			"doubleSided":true,
			"name":"Material.014",
			"pbrMetallicRoughness":{
				"baseColorFactor":[
					0.47932010889053345,
					0.1714409738779068,
					0.03310483321547508,
					1
				],
				"metallicFactor":0,
				"roughnessFactor":0.5
			}
		},
		{
			"doubleSided":true,
			"name":"Material.011",
			"pbrMetallicRoughness":{
				"baseColorFactor":[
					0.22025705873966217,
					0.04610641300678253,
					0,
					1
				],
				"metallicFactor":0,
				"roughnessFactor":0.5
			}
		},
		{
			"doubleSided":true,
			"name":"Material.012",
			"pbrMetallicRoughness":{
				"baseColorFactor":[
					0.22025319933891296,
					0.07363525032997131,
					0.0059634484350681305,
					1
				],
				"metallicFactor":0,
				"roughnessFactor":0.5
			}
		},
		{
			"doubleSided":true,
			"name":"Material.015",
			"pbrMetallicRoughness":{
				"baseColorFactor":[
					0.4479793310165405,
					0.10113992542028427,
					0.006438778713345528,
					1
				],
				"metallicFactor":0,
				"roughnessFactor":0.5
			}
		},
		{
			"doubleSided":true,
			"name":"Material.005",
			"pbrMetallicRoughness":{
				"baseColorFactor":[
					0.8000000715255737,
					0.502018392086029,
					0.10554756224155426,
					1
				],
				"metallicFactor":0,
				"roughnessFactor":0.5
			}
		}
	],
	"meshes":[
		{
			"name":"Cylinder",
			"primitives":[
				{
					"attributes":{
						"POSITION":0,
						"NORMAL":1,
						"TEXCOORD_0":2
					},
					"indices":3,
					"material":0
				},
				{
					"attributes":{
						"POSITION":4,
						"NORMAL":5,
						"TEXCOORD_0":6
					},
					"indices":7,
					"material":1
				},
				{
					"attributes":{
						"POSITION":8,
						"NORMAL":9,
						"TEXCOORD_0":10
					},
					"indices":11,
					"material":2
				},
				{
					"attributes":{
						"POSITION":12,
						"NORMAL":13,
						"TEXCOORD_0":14
					},
					"indices":11,
					"material":3
				},
				{
					"attributes":{
						"POSITION":15,
						"NORMAL":16,
						"TEXCOORD_0":17
					},
					"indices":11,
					"material":4
				},
				{
					"attributes":{
						"POSITION":18,
						"NORMAL":19,
						"TEXCOORD_0":20
					},
					"indices":11,
					"material":5
				},
				{
					"attributes":{
						"POSITION":21,
						"NORMAL":22,
						"TEXCOORD_0":23
					},
					"indices":11,
					"material":6
				},
				{
					"attributes":{
						"POSITION":24,
						"NORMAL":25,
						"TEXCOORD_0":26
					},
					"indices":11,
					"material":7
				},
				{
					"attributes":{
						"POSITION":27,
						"NORMAL":28,
						"TEXCOORD_0":29
					},
					"indices":30,
					"material":8
				}
			]
		}
	],
	"accessors":[
		{
			"bufferView":0,
			"componentType":5126,
			"count":665,
			"max":[
				0.8779215216636658,
				-0.13658857345581055,
				0.8779215812683105
			],
			"min":[
				-0.8779216408729553,
				-0.9999999403953552,
				-0.8779215812683105
			],
			"type":"VEC3"
		},
		{
			"bufferView":1,
			"componentType":5126,
			"count":665,
			"type":"VEC3"
		},
		{
			"bufferView":2,
			"componentType":5126,
			"count":665,
			"type":"VEC2"
		},
		{
			"bufferView":3,
			"componentType":5123,
			"count":2478,
			"type":"SCALAR"
		},
		{
			"bufferView":4,
			"componentType":5126,
			"count":32,
			"max":[
				0.8779215216636658,
				-0.3078857362270355,
				0.8779215812683105
			],
			"min":[
				-0.8779216408729553,
				-0.3078857362270355,
				-0.8779215812683105
			],
			"type":"VEC3"
		},
		{
			"bufferView":5,
			"componentType":5126,
			"count":32,
			"type":"VEC3"
		},
		{
			"bufferView":6,
			"componentType":5126,
			"count":32,
			"type":"VEC2"
		},
		{
			"bufferView":7,
			"componentType":5123,
			"count":90,
			"type":"SCALAR"
		},
		{
			"bufferView":8,
			"componentType":5126,
			"count":63,
			"max":[
				-0.2849308252334595,
				0.07884735614061356,
				0.198146253824234
			],
			"min":[
				-0.6618279814720154,
				-0.31744518876075745,
				-0.198146253824234
			],
			"type":"VEC3"
		},
		{
			"bufferView":9,
			"componentType":5126,
			"count":63,
			"type":"VEC3"
		},
		{
			"bufferView":10,
			"componentType":5126,
			"count":63,
			"type":"VEC2"
		},
		{
			"bufferView":11,
			"componentType":5123,
			"count":240,
			"type":"SCALAR"
		},
		{
			"bufferView":12,
			"componentType":5126,
			"count":63,
			"max":[
				0.2753535509109497,
				0.07884735614061356,
				-0.24074938893318176
			],
			"min":[
				-0.10154356807470322,
				-0.31744518876075745,
				-0.6370418667793274
			],
			"type":"VEC3"
		},
		{
			"bufferView":13,
			"componentType":5126,
			"count":63,
			"type":"VEC3"
		},
		{
			"bufferView":14,
			"componentType":5126,
			"count":63,
			"type":"VEC2"
		},
		{
			"bufferView":15,
			"componentType":5126,
			"count":63,
			"max":[
				0.5799692273139954,
				0.01716562919318676,
				0.6031497120857239
			],
			"min":[
				0.32039788365364075,
				-0.255763441324234,
				0.33022069931030273
			],
			"type":"VEC3"
		},
		{
			"bufferView":16,
			"componentType":5126,
			"count":63,
			"type":"VEC3"
		},
		{
			"bufferView":17,
			"componentType":5126,
			"count":63,
			"type":"VEC2"
		},
		{
			"bufferView":18,
			"componentType":5126,
			"count":63,
			"max":[
				0.30721795558929443,
				0.017165696248412132,
				0.574482262134552
			],
			"min":[
				0.04764660820364952,
				-0.25576338171958923,
				0.30155321955680847
			],
			"type":"VEC3"
		},
		{
			"bufferView":19,
			"componentType":5126,
			"count":63,
			"type":"VEC3"
		},
		{
			"bufferView":20,
			"componentType":5126,
			"count":63,
			"type":"VEC2"
		},
		{
			"bufferView":21,
			"componentType":5126,
			"count":63,
			"max":[
				0.30721795558929443,
				0.017165696248412132,
				0.08902984112501144
			],
			"min":[
				0.04764660820364952,
				-0.25576338171958923,
				-0.18389920890331268
			],
			"type":"VEC3"
		},
		{
			"bufferView":22,
			"componentType":5126,
			"count":63,
			"type":"VEC3"
		},
		{
			"bufferView":23,
			"componentType":5126,
			"count":63,
			"type":"VEC2"
		},
		{
			"bufferView":24,
			"componentType":5126,
			"count":63,
			"max":[
				-0.08107399195432663,
				0.014083980582654476,
				0.6387182474136353
			],
			"min":[
				-0.45797112584114075,
				-0.38220855593681335,
				0.24242573976516724
			],
			"type":"VEC3"
		},
		{
			"bufferView":25,
			"componentType":5126,
			"count":63,
			"type":"VEC3"
		},
		{
			"bufferView":26,
			"componentType":5126,
			"count":63,
			"type":"VEC2"
		},
		{
			"bufferView":27,
			"componentType":5126,
			"count":34024,
			"max":[
				0.736346423625946,
				-0.08158991485834122,
				0.7626606822013855
			],
			"min":[
				-0.7254379391670227,
				-0.18679679930210114,
				-0.711272656917572
			],
			"type":"VEC3"
		},
		{
			"bufferView":28,
			"componentType":5126,
			"count":34024,
			"type":"VEC3"
		},
		{
			"bufferView":29,
			"componentType":5126,
			"count":34024,
			"type":"VEC2"
		},
		{
			"bufferView":30,
			"componentType":5123,
			"count":191712,
			"type":"SCALAR"
		}
	],
	"bufferViews":[
		{
			"buffer":0,
			"byteLength":7980,
			"byteOffset":0,
			"target":34962
		},
		{
			"buffer":0,
			"byteLength":7980,
			"byteOffset":7980,
			"target":34962
		},
		{
			"buffer":0,
			"byteLength":5320,
			"byteOffset":15960,
			"target":34962
		},
		{
			"buffer":0,
			"byteLength":4956,
			"byteOffset":21280,
			"target":34963
		},
		{
			"buffer":0,
			"byteLength":384,
			"byteOffset":26236,
			"target":34962
		},
		{
			"buffer":0,
			"byteLength":384,
			"byteOffset":26620,
			"target":34962
		},
		{
			"buffer":0,
			"byteLength":256,
			"byteOffset":27004,
			"target":34962
		},
		{
			"buffer":0,
			"byteLength":180,
			"byteOffset":27260,
			"target":34963
		},
		{
			"buffer":0,
			"byteLength":756,
			"byteOffset":27440,
			"target":34962
		},
		{
			"buffer":0,
			"byteLength":756,
			"byteOffset":28196,
			"target":34962
		},
		{
			"buffer":0,
			"byteLength":504,
			"byteOffset":28952,
			"target":34962
		},
		{
			"buffer":0,
			"byteLength":480,
			"byteOffset":29456,
			"target":34963
		},
		{
			"buffer":0,
			"byteLength":756,
			"byteOffset":29936,
			"target":34962
		},
		{
			"buffer":0,
			"byteLength":756,
			"byteOffset":30692,
			"target":34962
		},
		{
			"buffer":0,
			"byteLength":504,
			"byteOffset":31448,
			"target":34962
		},
		{
			"buffer":0,
			"byteLength":756,
			"byteOffset":31952,
			"target":34962
		},
		{
			"buffer":0,
			"byteLength":756,
			"byteOffset":32708,
			"target":34962
		},
		{
			"buffer":0,
			"byteLength":504,
			"byteOffset":33464,
			"target":34962
		},
		{
			"buffer":0,
			"byteLength":756,
			"byteOffset":33968,
			"target":34962
		},
		{
			"buffer":0,
			"byteLength":756,
			"byteOffset":34724,
			"target":34962
		},
		{
			"buffer":0,
			"byteLength":504,
			"byteOffset":35480,
			"target":34962
		},
		{
			"buffer":0,
			"byteLength":756,
			"byteOffset":35984,
			"target":34962
		},
		{
			"buffer":0,
			"byteLength":756,
			"byteOffset":36740,
			"target":34962
		},
		{
			"buffer":0,
			"byteLength":504,
			"byteOffset":37496,
			"target":34962
		},
		{
			"buffer":0,
			"byteLength":756,
			"byteOffset":38000,
			"target":34962
		},
		{
			"buffer":0,
			"byteLength":756,
			"byteOffset":38756,
			"target":34962
		},
		{
			"buffer":0,
			"byteLength":504,
			"byteOffset":39512,
			"target":34962
		},
		{
			"buffer":0,
			"byteLength":408288,
			"byteOffset":40016,
			"target":34962
		},
		{
			"buffer":0,
			"byteLength":408288,
			"byteOffset":448304,
			"target":34962
		},
		{
			"buffer":0,
			"byteLength":272192,
			"byteOffset":856592,
			"target":34962
		},
		{
			"buffer":0,
			"byteLength":383424,
			"byteOffset":1128784,
			"target":34963
		}
	],
	"buffers":[
		{
			"byteLength":1512208,
			"uri":"data:application/octet-stream;base64,"
		}
	]
}
