{
	"asset":{
		"generator":"Khronos glTF Blender I/O v3.6.27",
		"version":"2.0"
	},
	"scene":0,
	"scenes":[
		{
			"name":"Scene",
			"nodes":[
				0
			]
		}
	],
	"nodes":[
		{
			"mesh":0,
			"name":"Wizard hat",
			"rotation":[
				0,
				0.5446390509605408,
				0,
				0.838670551776886
			],
			"scale":[
				0.14851045608520508,
				0.14851045608520508,
				0.14851045608520508
			]
		}
	],
	"materials":[
		{
			"doubleSided":true,
			"name":"Material.001",
			"pbrMetallicRoughness":{
				"baseColorTexture":{
					"index":0
				},
				"metallicFactor":0,
				"roughnessFactor":0.5
			}
		}
	],
	"meshes":[
		{
			"name":"Cone",
			"primitives":[
				{
					"attributes":{
						"POSITION":0,
						"NORMAL":1,
						"TEXCOORD_0":2
					},
					"indices":3,
					"material":0
				}
			]
		}
	],
	"textures":[
		{
			"sampler":0,
			"source":0
		}
	],
	"images":[
		{
			"bufferView":4,
			"mimeType":"image/jpeg",
			"name":"wizard pattern"
		}
	],
	"accessors":[
		{
			"bufferView":0,
			"componentType":5126,
			"count":816,
			"max":[
				2.0200133323669434,
				3.5886924266815186,
				1.9735585451126099
			],
			"min":[
				-1.9726433753967285,
				0.015139341354370117,
				-2.0190982818603516
			],
			"type":"VEC3"
		},
		{
			"bufferView":1,
			"componentType":5126,
			"count":816,
			"type":"VEC3"
		},
		{
			"bufferView":2,
			"componentType":5126,
			"count":816,
			"type":"VEC2"
		},
		{
			"bufferView":3,
			"componentType":5123,
			"count":3264,
			"type":"SCALAR"
		}
	],
	"bufferViews":[
		{
			"buffer":0,
			"byteLength":9792,
			"byteOffset":0,
			"target":34962
		},
		{
			"buffer":0,
			"byteLength":9792,
			"byteOffset":9792,
			"target":34962
		},
		{
			"buffer":0,
			"byteLength":6528,
			"byteOffset":19584,
			"target":34962
		},
		{
			"buffer":0,
			"byteLength":6528,
			"byteOffset":26112,
			"target":34963
		},
		{
			"buffer":0,
			"byteLength":264882,
			"byteOffset":32640
		}
	],
	"samplers":[
		{
			"magFilter":9729,
			"minFilter":9987
		}
	],
	"buffers":[
		{
			"byteLength":297524,
			"uri":"data:application/octet-stream;base64,"
		}
	]
}
